<svg width="102" height="101" viewBox="0 0 102 101" fill="none" xmlns="http://www.w3.org/2000/svg">
<path opacity="0.2" d="M80.9893 14.2651V40.7418C80.9893 57.3998 67.6678 71.2046 51.0106 71.3305C47.024 71.361 43.0709 70.602 39.379 69.0974C35.6872 67.5928 32.3296 65.3723 29.4999 62.5639C26.6702 59.7555 24.4243 56.4148 22.8917 52.7343C21.3592 49.0538 20.5702 45.1063 20.5703 41.1194V14.2651H80.9893Z" fill="#FF6DAF"/>
<path d="M94.4158 20.9788H84.346V14.2652C84.346 13.375 83.9923 12.5211 83.3628 11.8916C82.7334 11.2621 81.8796 10.9084 80.9893 10.9084H20.5703C19.6801 10.9084 18.8263 11.2621 18.1969 11.8916C17.5674 12.5211 17.2137 13.375 17.2137 14.2652V20.9788H7.14389C5.36343 20.9788 3.6559 21.6861 2.39692 22.9452C1.13795 24.2042 0.430664 25.9118 0.430664 27.6924V34.406C0.430664 38.8573 2.19887 43.1264 5.34631 46.274C6.90476 47.8325 8.75491 49.0688 10.7911 49.9123C12.8273 50.7558 15.0097 51.1899 17.2137 51.1899H18.7452C20.7224 57.4562 24.4924 63.0058 29.5891 67.1528C34.6859 71.2998 40.886 73.8623 47.4232 74.5238V84.7578H37.3534C36.4632 84.7578 35.6094 85.1114 34.9799 85.7409C34.3504 86.3705 33.9968 87.2243 33.9968 88.1145C33.9968 89.0048 34.3504 89.8586 34.9799 90.4882C35.6094 91.1177 36.4632 91.4713 37.3534 91.4713H64.2063C65.0965 91.4713 65.9503 91.1177 66.5798 90.4882C67.2093 89.8586 67.5629 89.0048 67.5629 88.1145C67.5629 87.2243 67.2093 86.3705 66.5798 85.7409C65.9503 85.1114 65.0965 84.7578 64.2063 84.7578H54.1365V74.5112C67.5377 73.1559 78.6565 63.7527 82.7012 51.1899H84.346C88.7971 51.1899 93.0659 49.4216 96.2134 46.274C99.3608 43.1264 101.129 38.8573 101.129 34.406V27.6924C101.129 25.9118 100.422 24.2042 99.1628 22.9452C97.9038 21.6861 96.1963 20.9788 94.4158 20.9788ZM17.2137 44.4763C14.543 44.4763 11.9817 43.4153 10.0933 41.5268C8.20481 39.6382 7.14389 37.0768 7.14389 34.406V27.6924H17.2137V41.1195C17.2137 42.2385 17.2683 43.3574 17.3774 44.4763H17.2137ZM77.6327 40.7419C77.6327 55.646 65.465 67.8647 50.7798 67.9738C43.658 67.9738 36.8279 65.1445 31.792 60.1084C26.7561 55.0722 23.9269 48.2417 23.9269 41.1195V17.622H77.6327V40.7419ZM94.4158 34.406C94.4158 37.0768 93.3549 39.6382 91.4664 41.5268C89.5779 43.4153 87.0166 44.4763 84.346 44.4763H84.1362C84.2739 43.2362 84.3439 41.9896 84.346 40.7419V27.6924H94.4158V34.406Z" fill="#FF6DAF"/>
</svg>
