<svg width="100" height="101" viewBox="0 0 100 101" fill="none" xmlns="http://www.w3.org/2000/svg">
<path opacity="0.2" d="M68.75 37.9858C68.75 41.6942 67.6503 45.3194 65.5901 48.4028C63.5298 51.4862 60.6014 53.8894 57.1753 55.3086C53.7492 56.7277 49.9792 57.099 46.3421 56.3756C42.7049 55.6521 39.364 53.8663 36.7418 51.2441C34.1195 48.6219 32.3338 45.2809 31.6103 41.6438C30.8868 38.0066 31.2581 34.2366 32.6773 30.8105C34.0964 27.3844 36.4996 24.4561 39.5831 22.3958C42.6665 20.3355 46.2916 19.2358 50 19.2358C54.9728 19.2358 59.742 21.2113 63.2583 24.7276C66.7746 28.2439 68.75 33.013 68.75 37.9858Z" fill="#804DD4"/>
<path d="M84.375 37.9857C84.3784 32.1928 82.9178 26.4929 80.1288 21.4155C77.3398 16.3381 73.3129 12.048 68.422 8.94344C63.5312 5.83892 57.9351 4.02077 52.1535 3.65786C46.3719 3.29495 40.5924 4.39906 35.3517 6.86763C30.111 9.3362 25.5792 13.0892 22.1772 17.7779C18.7752 22.4667 16.6133 27.9392 15.8923 33.6871C15.1713 39.435 15.9146 45.272 18.0533 50.6557C20.1919 56.0394 23.6564 60.7954 28.125 64.4818V94.2357C28.1246 94.7687 28.2605 95.2929 28.5199 95.7585C28.7792 96.2241 29.1533 96.6157 29.6066 96.8959C30.0599 97.1762 30.5773 97.3359 31.1097 97.3598C31.6421 97.3838 32.1718 97.2711 32.6484 97.0326L50 88.3764L67.3555 97.0522C67.7906 97.2604 68.2677 97.3659 68.75 97.3607C69.5788 97.3607 70.3737 97.0315 70.9597 96.4455C71.5458 95.8594 71.875 95.0645 71.875 94.2357V64.4818C75.7849 61.2616 78.9334 57.2158 81.0946 52.6348C83.2558 48.0537 84.3761 43.051 84.375 37.9857ZM21.875 37.9857C21.875 32.4231 23.5245 26.9855 26.6149 22.3603C29.7053 17.7352 34.0979 14.1303 39.237 12.0016C44.3762 9.87292 50.0312 9.31595 55.4869 10.4012C60.9426 11.4864 65.954 14.165 69.8874 18.0984C73.8207 22.0317 76.4994 27.0431 77.5846 32.4988C78.6698 37.9545 78.1128 43.6095 75.9841 48.7487C73.8554 53.8879 70.2506 58.2804 65.6254 61.3708C61.0003 64.4612 55.5626 66.1107 50 66.1107C42.5433 66.1025 35.3944 63.1367 30.1218 57.864C24.8491 52.5913 21.8833 45.4424 21.875 37.9857ZM65.625 89.1811L51.3945 82.0678C50.9604 81.8505 50.4816 81.7374 49.9961 81.7374C49.5106 81.7374 49.0318 81.8505 48.5977 82.0678L34.375 89.1811V68.599C39.2124 71.0715 44.5674 72.3607 50 72.3607C55.4326 72.3607 60.7876 71.0715 65.625 68.599V89.1811ZM50 59.8607C54.3265 59.8607 58.5558 58.5778 62.1531 56.1741C65.7504 53.7705 68.5542 50.3541 70.2099 46.3569C71.8655 42.3598 72.2987 37.9615 71.4547 33.7181C70.6106 29.4748 68.5272 25.5771 65.468 22.5178C62.4087 19.4585 58.5109 17.3751 54.2676 16.5311C50.0243 15.687 45.6259 16.1202 41.6288 17.7759C37.6317 19.4315 34.2153 22.2353 31.8116 25.8326C29.408 29.43 28.125 33.6593 28.125 37.9857C28.1312 43.7854 30.4379 49.3458 34.5389 53.4469C38.6399 57.5479 44.2003 59.8545 50 59.8607ZM50 22.3607C53.0903 22.3607 56.1113 23.2771 58.6808 24.994C61.2503 26.7109 63.253 29.1512 64.4356 32.0063C65.6182 34.8614 65.9277 38.0031 65.3248 41.034C64.7219 44.065 63.2337 46.8491 61.0485 49.0343C58.8634 51.2195 56.0792 52.7076 53.0483 53.3105C50.0173 53.9134 46.8757 53.604 44.0206 52.4214C41.1655 51.2387 38.7252 49.236 37.0083 46.6665C35.2914 44.097 34.375 41.0761 34.375 37.9857C34.375 33.8417 36.0212 29.8675 38.9515 26.9372C41.8817 24.0069 45.856 22.3607 50 22.3607Z" fill="#804DD4"/>
</svg>
