<svg width="104" height="101" viewBox="0 0 104 101" fill="none" xmlns="http://www.w3.org/2000/svg">
<path opacity="0.2" d="M85 58V89.5C85 90.4283 84.6523 91.3185 84.0335 91.9749C83.4146 92.6313 82.5752 93 81.7 93H22.3C21.4248 93 20.5854 92.6313 19.9665 91.9749C19.3477 91.3185 19 90.4283 19 89.5V58H85Z" fill="#FF8806"/>
<path d="M89.2308 31.8043H74.3892C74.5542 31.664 74.7235 31.528 74.8842 31.3793C76.1692 30.2326 77.2047 28.832 77.9261 27.265C78.6476 25.6979 79.0393 23.9982 79.0769 22.2722C79.1325 20.3839 78.8033 18.5042 78.1095 16.7484C77.4156 14.9925 76.3719 13.3977 75.0423 12.0617C73.7126 10.7257 72.1252 9.67681 70.3774 8.97937C68.6296 8.28193 66.7583 7.95067 64.8785 8.00593C63.1594 8.04313 61.4664 8.43636 59.9056 9.16103C58.3448 9.8857 56.9497 10.9262 55.8077 12.2174C54.2274 14.0571 52.9427 16.1332 52 18.371C51.0573 16.1332 49.7726 14.0571 48.1923 12.2174C47.0503 10.9262 45.6552 9.8857 44.0944 9.16103C42.5336 8.43636 40.8406 8.04313 39.1215 8.00593C37.2417 7.95067 35.3704 8.28193 33.6226 8.97937C31.8748 9.67681 30.2874 10.7257 28.9577 12.0617C27.6281 13.3977 26.5844 14.9925 25.8905 16.7484C25.1967 18.5042 24.8675 20.3839 24.9231 22.2722C24.9607 23.9982 25.3524 25.6979 26.0739 27.265C26.7953 28.832 27.8308 30.2326 29.1158 31.3793C29.2765 31.5195 29.4458 31.6555 29.6108 31.8043H14.7692C12.9739 31.8043 11.2521 32.5206 9.98266 33.7958C8.71318 35.071 8 36.8005 8 38.6038V52.2028C8 54.0062 8.71318 55.7357 9.98266 57.0108C11.2521 58.286 12.9739 59.0024 14.7692 59.0024V86.2005C14.7692 88.0038 15.4824 89.7333 16.7519 91.0085C18.0214 92.2836 19.7431 93 21.5385 93H82.4615C84.2569 93 85.9786 92.2836 87.2481 91.0085C88.5176 89.7333 89.2308 88.0038 89.2308 86.2005V59.0024C91.0261 59.0024 92.7479 58.286 94.0173 57.0108C95.2868 55.7357 96 54.0062 96 52.2028V38.6038C96 36.8005 95.2868 35.071 94.0173 33.7958C92.7479 32.5206 91.0261 31.8043 89.2308 31.8043ZM60.8846 16.7221C61.4205 16.1276 62.073 15.6509 62.8011 15.3218C63.5291 14.9927 64.317 14.8184 65.1154 14.8097H65.3227C66.2584 14.8156 67.1835 15.009 68.0439 15.3786C68.9042 15.7482 69.6825 16.2866 70.333 16.9622C70.9835 17.6379 71.4933 18.4371 71.8324 19.3131C72.1714 20.1892 72.333 21.1244 72.3077 22.064C72.2991 22.8659 72.1255 23.6573 71.7979 24.3886C71.4703 25.12 70.9956 25.7754 70.4038 26.3137C66.3888 29.8834 59.7254 31.1413 55.5962 31.5833C56.1038 27.0829 57.5 20.5426 60.8846 16.7221ZM33.7696 16.8751C35.0809 15.558 36.8568 14.8143 38.7112 14.8055H38.9185C39.7168 14.8141 40.5047 14.9885 41.2328 15.3175C41.9609 15.6466 42.6133 16.1234 43.1492 16.7178C46.6988 20.7465 47.9512 27.4271 48.3912 31.5578C44.2788 31.1328 37.6281 29.8579 33.6173 26.2924C33.0255 25.7541 32.5509 25.0987 32.2233 24.3674C31.8956 23.6361 31.7221 22.8446 31.7135 22.0427C31.6872 21.0875 31.8544 20.1369 32.205 19.2486C32.5555 18.3603 33.0821 17.5528 33.7527 16.8751H33.7696ZM14.7692 38.6038H48.6154V52.2028H14.7692V38.6038ZM21.5385 59.0024H48.6154V86.2005H21.5385V59.0024ZM82.4615 86.2005H55.3846V59.0024H82.4615V86.2005ZM89.2308 52.2028H55.3846V38.6038H89.2308V52.2028Z" fill="#FF8806"/>
</svg>
