<svg width="100" height="101" viewBox="0 0 100 101" fill="none" xmlns="http://www.w3.org/2000/svg">
<path opacity="0.2" d="M76.1016 59.6382L54.582 67.5679L46.6523 89.0874C46.4333 89.6808 46.0377 90.1927 45.5187 90.5544C44.9998 90.916 44.3825 91.1098 43.75 91.1098C43.1175 91.1098 42.5002 90.916 41.9812 90.5544C41.4623 90.1927 41.0667 89.6808 40.8476 89.0874L32.918 67.5679L11.3984 59.6382C10.8051 59.4191 10.2931 59.0235 9.93146 58.5046C9.56984 57.9856 9.37598 57.3683 9.37598 56.7358C9.37598 56.1033 9.56984 55.486 9.93146 54.9671C10.2931 54.4481 10.8051 54.0525 11.3984 53.8335L32.918 45.9038L40.8476 24.3843C41.0667 23.7909 41.4623 23.2789 41.9812 22.9173C42.5002 22.5557 43.1175 22.3618 43.75 22.3618C44.3825 22.3618 44.9998 22.5557 45.5187 22.9173C46.0377 23.2789 46.4333 23.7909 46.6523 24.3843L54.582 45.9038L76.1016 53.8335C76.6949 54.0525 77.2069 54.4481 77.5685 54.9671C77.9301 55.486 78.124 56.1033 78.124 56.7358C78.124 57.3683 77.9301 57.9856 77.5685 58.5046C77.2069 59.0235 76.6949 59.4191 76.1016 59.6382Z" fill="#FF6DAF"/>
<path d="M77.1799 50.8999L57.0315 43.4546L49.6096 23.2905C49.1701 22.0965 48.3749 21.066 47.3314 20.3381C46.2878 19.6102 45.046 19.22 43.7737 19.22C42.5013 19.22 41.2596 19.6102 40.216 20.3381C39.1725 21.066 38.3773 22.0965 37.9378 23.2905L30.469 43.4546L10.3049 50.8765C9.11092 51.316 8.08044 52.1112 7.35254 53.1547C6.62465 54.1983 6.23437 55.4401 6.23438 56.7124C6.23437 57.9848 6.62465 59.2265 7.35254 60.2701C8.08044 61.3136 9.11092 62.1088 10.3049 62.5483L30.469 70.0171L37.8909 90.1812C38.3304 91.3752 39.1256 92.4057 40.1692 93.1336C41.2127 93.8615 42.4545 94.2517 43.7268 94.2517C44.9992 94.2517 46.2409 93.8615 47.2845 93.1336C48.3281 92.4057 49.1232 91.3752 49.5628 90.1812L57.0315 70.0171L77.1956 62.5952C78.3896 62.1557 79.4201 61.3605 80.148 60.3169C80.8759 59.2734 81.2661 58.0316 81.2661 56.7593C81.2661 55.4869 80.8759 54.2452 80.148 53.2016C79.4201 52.158 78.3896 51.3629 77.1956 50.9233L77.1799 50.8999ZM53.5159 64.6343C53.0917 64.7906 52.7065 65.0371 52.3868 65.3568C52.0672 65.6764 51.8207 66.0617 51.6643 66.4858L43.7503 87.9273L35.8518 66.5015C35.6957 66.0728 35.4477 65.6835 35.1251 65.361C34.8026 65.0384 34.4133 64.7904 33.9846 64.6343L12.5588 56.7358L33.9846 48.8374C34.4133 48.6813 34.8026 48.4333 35.1251 48.1107C35.4477 47.7881 35.6957 47.3989 35.8518 46.9702L43.7503 25.5444L51.6487 46.9702C51.805 47.3944 52.0515 47.7796 52.3712 48.0993C52.6909 48.4189 53.0761 48.6655 53.5003 48.8218L74.9417 56.7358L53.5159 64.6343ZM56.2503 16.1108C56.2503 15.282 56.5795 14.4872 57.1655 13.9011C57.7516 13.3151 58.5465 12.9858 59.3753 12.9858H65.6253V6.73584C65.6253 5.90704 65.9545 5.11218 66.5405 4.52613C67.1266 3.94008 67.9215 3.61084 68.7503 3.61084C69.5791 3.61084 70.3739 3.94008 70.96 4.52613C71.546 5.11218 71.8753 5.90704 71.8753 6.73584V12.9858H78.1253C78.9541 12.9858 79.7489 13.3151 80.335 13.9011C80.921 14.4872 81.2503 15.282 81.2503 16.1108C81.2503 16.9396 80.921 17.7345 80.335 18.3205C79.7489 18.9066 78.9541 19.2358 78.1253 19.2358H71.8753V25.4858C71.8753 26.3146 71.546 27.1095 70.96 27.6955C70.3739 28.2816 69.5791 28.6108 68.7503 28.6108C67.9215 28.6108 67.1266 28.2816 66.5405 27.6955C65.9545 27.1095 65.6253 26.3146 65.6253 25.4858V19.2358H59.3753C58.5465 19.2358 57.7516 18.9066 57.1655 18.3205C56.5795 17.7345 56.2503 16.9396 56.2503 16.1108ZM96.8753 34.8608C96.8753 35.6896 96.546 36.4845 95.96 37.0705C95.3739 37.6566 94.5791 37.9858 93.7503 37.9858H90.6253V41.1108C90.6253 41.9396 90.296 42.7345 89.71 43.3206C89.1239 43.9066 88.3291 44.2358 87.5003 44.2358C86.6715 44.2358 85.8766 43.9066 85.2906 43.3206C84.7045 42.7345 84.3753 41.9396 84.3753 41.1108V37.9858H81.2503C80.4215 37.9858 79.6266 37.6566 79.0406 37.0705C78.4545 36.4845 78.1253 35.6896 78.1253 34.8608C78.1253 34.032 78.4545 33.2372 79.0406 32.6511C79.6266 32.0651 80.4215 31.7358 81.2503 31.7358H84.3753V28.6108C84.3753 27.782 84.7045 26.9872 85.2906 26.4011C85.8766 25.8151 86.6715 25.4858 87.5003 25.4858C88.3291 25.4858 89.1239 25.8151 89.71 26.4011C90.296 26.9872 90.6253 27.782 90.6253 28.6108V31.7358H93.7503C94.5791 31.7358 95.3739 32.0651 95.96 32.6511C96.546 33.2372 96.8753 34.032 96.8753 34.8608Z" fill="#FF6DAF"/>
</svg>
