<svg width="80" height="102" viewBox="0 0 80 102" fill="none" xmlns="http://www.w3.org/2000/svg">
<path opacity="0.2" d="M39.9999 4.31824C30.4762 4.31824 21.3426 8.10151 14.6083 14.8358C7.87409 21.57 4.09082 30.7036 4.09082 40.2273C4.09082 72.5455 39.9999 97.6819 39.9999 97.6819C39.9999 97.6819 75.909 72.5455 75.909 40.2273C75.909 30.7036 72.1257 21.57 65.3915 14.8358C58.6572 8.10151 49.5236 4.31824 39.9999 4.31824ZM39.9999 54.591C37.1591 54.591 34.382 53.7486 32.0199 52.1703C29.6578 50.592 27.8168 48.3487 26.7296 45.7241C25.6425 43.0994 25.358 40.2114 25.9123 37.4251C26.4665 34.6389 27.8345 32.0795 29.8433 30.0707C31.8521 28.0619 34.4114 26.6939 37.1977 26.1397C39.984 25.5855 42.872 25.8699 45.4966 26.9571C48.1212 28.0442 50.3645 29.8852 51.9428 32.2473C53.5211 34.6094 54.3635 37.3865 54.3635 40.2273C54.3635 44.0368 52.8502 47.6903 50.1565 50.384C47.4628 53.0777 43.8094 54.591 39.9999 54.591Z" fill="#FF6DAF"/>
<path d="M40 22.2731C36.4489 22.2731 32.9776 23.3261 30.025 25.299C27.0724 27.2719 24.7711 30.076 23.4122 33.3568C22.0532 36.6375 21.6977 40.2476 22.3904 43.7304C23.0832 47.2133 24.7932 50.4125 27.3042 52.9234C29.8152 55.4344 33.0144 57.1444 36.4972 57.8372C39.9801 58.53 43.5901 58.1744 46.8709 56.8155C50.1517 55.4566 52.9558 53.1553 54.9287 50.2027C56.9015 47.2501 57.9545 43.7787 57.9545 40.2277C57.9545 35.4658 56.0629 30.899 52.6958 27.5319C49.3286 24.1648 44.7618 22.2731 40 22.2731ZM40 51.0004C37.8694 51.0004 35.7866 50.3686 34.015 49.1849C32.2434 48.0011 30.8627 46.3187 30.0473 44.3502C29.2319 42.3817 29.0186 40.2157 29.4343 38.126C29.8499 36.0363 30.8759 34.1168 32.3825 32.6102C33.8891 31.1036 35.8086 30.0776 37.8983 29.6619C39.988 29.2463 42.1541 29.4596 44.1225 30.275C46.091 31.0903 47.7735 32.4711 48.9572 34.2427C50.1409 36.0142 50.7727 38.097 50.7727 40.2277C50.7727 43.0848 49.6377 45.8249 47.6175 47.8451C45.5972 49.8654 42.8571 51.0004 40 51.0004ZM40 0.727661C29.5276 0.739541 19.4875 4.90495 12.0824 12.3101C4.67729 19.7152 0.51188 29.7553 0.5 40.2277C0.5 54.322 7.01301 69.2602 19.3523 83.4308C24.8967 89.8341 31.137 95.6001 37.9577 100.622C38.5614 101.045 39.2808 101.272 40.018 101.272C40.7551 101.272 41.4745 101.045 42.0782 100.622C48.8864 95.5981 55.1145 89.8321 60.6477 83.4308C72.969 69.2602 79.5 54.322 79.5 40.2277C79.4881 29.7553 75.3227 19.7152 67.9176 12.3101C60.5125 4.90495 50.4724 0.739541 40 0.727661ZM40 93.1936C32.5803 87.3583 7.68182 65.9251 7.68182 40.2277C7.68182 31.6563 11.0868 23.4361 17.1476 17.3753C23.2084 11.3144 31.4287 7.90948 40 7.90948C48.5713 7.90948 56.7916 11.3144 62.8524 17.3753C68.9132 23.4361 72.3182 31.6563 72.3182 40.2277C72.3182 65.9161 47.4197 87.3583 40 93.1936Z" fill="#FF6DAF"/>
</svg>
