<svg width="66" height="100" viewBox="0 0 66 100" fill="none" xmlns="http://www.w3.org/2000/svg">
<path opacity="0.2" d="M61.8891 10.7143V89.2857C61.8891 91.1801 61.1282 92.9969 59.7738 94.3365C58.4193 95.676 56.5823 96.4286 54.6669 96.4286H11.3335C9.4181 96.4286 7.5811 95.676 6.22667 94.3365C4.87224 92.9969 4.11133 91.1801 4.11133 89.2857V10.7143C4.11133 8.81987 4.87224 7.00305 6.22667 5.66351C7.5811 4.32396 9.4181 3.57141 11.3335 3.57141H54.6669C56.5823 3.57141 58.4193 4.32396 59.7738 5.66351C61.1282 7.00305 61.8891 8.81987 61.8891 10.7143Z" fill="#804DD4"/>
<path d="M54.6667 0H11.3333C8.46016 0 5.70465 1.12882 3.67301 3.13814C1.64137 5.14746 0.5 7.87268 0.5 10.7143V89.2857C0.5 92.1273 1.64137 94.8525 3.67301 96.8619C5.70465 98.8712 8.46016 100 11.3333 100H54.6667C57.5398 100 60.2953 98.8712 62.327 96.8619C64.3586 94.8525 65.5 92.1273 65.5 89.2857V10.7143C65.5 7.87268 64.3586 5.14746 62.327 3.13814C60.2953 1.12882 57.5398 0 54.6667 0ZM58.2778 89.2857C58.2778 90.2329 57.8973 91.1413 57.2201 91.8111C56.5429 92.4809 55.6244 92.8571 54.6667 92.8571H11.3333C10.3756 92.8571 9.45711 92.4809 8.77989 91.8111C8.10268 91.1413 7.72222 90.2329 7.72222 89.2857V10.7143C7.72222 9.76708 8.10268 8.85868 8.77989 8.1889C9.45711 7.51913 10.3756 7.14286 11.3333 7.14286H54.6667C55.6244 7.14286 56.5429 7.51913 57.2201 8.1889C57.8973 8.85868 58.2778 9.76708 58.2778 10.7143V89.2857ZM51.0556 17.8571C51.0556 18.8043 50.6751 19.7128 49.9979 20.3825C49.3207 21.0523 48.4022 21.4286 47.4444 21.4286H18.5556C17.5978 21.4286 16.6793 21.0523 16.0021 20.3825C15.3249 19.7128 14.9444 18.8043 14.9444 17.8571C14.9444 16.9099 15.3249 16.0015 16.0021 15.3318C16.6793 14.662 17.5978 14.2857 18.5556 14.2857H47.4444C48.4022 14.2857 49.3207 14.662 49.9979 15.3318C50.6751 16.0015 51.0556 16.9099 51.0556 17.8571Z" fill="#804DD4"/>
</svg>
