<svg width="92" height="100" viewBox="0 0 92 100" fill="none" xmlns="http://www.w3.org/2000/svg">
<path opacity="0.2" d="M87.3462 44.5415V93.6682H4.65332V44.5415C4.65332 41.9357 5.04933 39.4366 5.75424 37.594C6.45914 35.7514 7.4152 34.7162 8.41209 34.7162H83.5874C84.5843 34.7162 85.5404 35.7514 86.2453 37.594C86.9502 39.4366 87.3462 41.9357 87.3462 44.5415Z" fill="#FF8806"/>
<path d="M84.3333 7.69231H72.8333V3.84615C72.8333 2.82609 72.4295 1.84781 71.7106 1.12651C70.9917 0.405218 70.0167 0 69 0C67.9833 0 67.0083 0.405218 66.2894 1.12651C65.5705 1.84781 65.1667 2.82609 65.1667 3.84615V7.69231H26.8333V3.84615C26.8333 2.82609 26.4295 1.84781 25.7106 1.12651C24.9917 0.405218 24.0167 0 23 0C21.9833 0 21.0083 0.405218 20.2894 1.12651C19.5705 1.84781 19.1667 2.82609 19.1667 3.84615V7.69231H7.66667C5.63334 7.69231 3.68329 8.50274 2.24551 9.94533C0.807735 11.3879 0 13.3445 0 15.3846V92.3077C0 94.3478 0.807735 96.3044 2.24551 97.747C3.68329 99.1896 5.63334 100 7.66667 100H84.3333C86.3667 100 88.3167 99.1896 89.7545 97.747C91.1923 96.3044 92 94.3478 92 92.3077V15.3846C92 13.3445 91.1923 11.3879 89.7545 9.94533C88.3167 8.50274 86.3667 7.69231 84.3333 7.69231ZM19.1667 15.3846V19.2308C19.1667 20.2508 19.5705 21.2291 20.2894 21.9504C21.0083 22.6717 21.9833 23.0769 23 23.0769C24.0167 23.0769 24.9917 22.6717 25.7106 21.9504C26.4295 21.2291 26.8333 20.2508 26.8333 19.2308V15.3846H65.1667V19.2308C65.1667 20.2508 65.5705 21.2291 66.2894 21.9504C67.0083 22.6717 67.9833 23.0769 69 23.0769C70.0167 23.0769 70.9917 22.6717 71.7106 21.9504C72.4295 21.2291 72.8333 20.2508 72.8333 19.2308V15.3846H84.3333V30.7692H7.66667V15.3846H19.1667ZM84.3333 92.3077H7.66667V38.4615H84.3333V92.3077Z" fill="#FF8806"/>
</svg>
