<svg width="100" height="100" viewBox="0 0 100 100" fill="none" xmlns="http://www.w3.org/2000/svg">
<path opacity="0.2" d="M93.448 42.7673L53.8439 53.8292L42.7826 93.4353C42.5448 94.2116 42.0675 94.8928 41.419 95.3813C40.7705 95.8698 39.9841 96.1407 39.1723 96.1551C38.3606 96.1695 37.5651 95.9267 36.8996 95.4615C36.2342 94.9963 35.733 94.3325 35.4678 93.5652L4.07307 8.91817C3.84214 8.23913 3.80559 7.50906 3.96755 6.81036C4.12952 6.11165 4.48355 5.47213 4.98968 4.96397C5.49581 4.45581 6.1339 4.09924 6.83192 3.93452C7.52995 3.76979 8.26012 3.80346 8.94002 4.03173L93.5826 35.4281C94.3589 35.688 95.032 36.1889 95.5041 36.8577C95.9762 37.5265 96.2227 38.3286 96.2077 39.1471C96.1926 39.9657 95.9169 40.7581 95.4206 41.4092C94.9243 42.0602 94.2333 42.536 93.448 42.7673Z" fill="#FF6DAF"/>
<path d="M94.8809 31.8059L10.2768 0.443254L10.1998 0.419207C8.83803 -0.0497054 7.37195 -0.126979 5.96839 0.196178C4.56483 0.519335 3.28013 1.22995 2.26045 2.24718C1.24076 3.26441 0.527029 4.54742 0.200437 5.95025C-0.126155 7.35309 -0.0524914 8.81943 0.413045 10.1825C0.418892 10.2087 0.426936 10.2345 0.43709 10.2594L31.8222 94.8679C32.3376 96.3765 33.3153 97.6843 34.6164 98.6055C35.9174 99.5267 37.4756 100.015 39.0697 99.9997H39.214C40.8395 99.9873 42.4181 99.4528 43.7169 98.4752C45.0157 97.4976 45.9661 96.1285 46.4278 94.5698L46.4567 94.4736L56.9601 56.9596L94.4721 46.4556L94.5683 46.4268C96.1154 45.9507 97.473 44.9988 98.4479 43.7065C99.4228 42.4142 99.9654 40.8474 99.9984 39.2289C100.031 37.6105 99.5532 36.0228 98.6319 34.6918C97.7105 33.3609 96.3929 32.3544 94.8665 31.8155L94.8809 31.8059ZM52.8049 50.1253C52.1696 50.3036 51.5908 50.6424 51.1242 51.109C50.6577 51.5756 50.3189 52.1544 50.1406 52.7897L39.0793 92.3045L39.0505 92.2227L7.67499 7.65749L92.231 39.025L92.308 39.0538L52.8049 50.1253Z" fill="#FF6DAF"/>
</svg>
