<svg width="30" height="30" viewBox="0 0 30 30" fill="none" xmlns="http://www.w3.org/2000/svg">
<path d="M16.5 27.728C16.5 28.1265 16.3416 28.5087 16.0598 28.7905C15.7781 29.0723 15.3959 29.2306 14.9973 29.2306C14.5988 29.2306 14.2166 29.0723 13.9348 28.7905C13.6531 28.5087 13.4947 28.1265 13.4947 27.728L13.4965 16.5027L2.27119 16.5009C1.87268 16.5009 1.49049 16.3426 1.20869 16.0608C0.926901 15.779 0.768592 15.3969 0.768592 14.9983C0.768591 14.5998 0.9269 14.2176 1.20869 13.9358C1.49049 13.654 1.87268 13.4957 2.27119 13.4957L13.4965 13.4975L13.4983 2.27218C13.4983 1.87367 13.6566 1.49148 13.9384 1.20968C14.2202 0.92789 14.6024 0.769581 15.0009 0.769581C15.3994 0.769581 15.7816 0.92789 16.0634 1.20968C16.3452 1.49148 16.5035 1.87367 16.5035 2.27218L16.5017 13.4975L27.7297 13.4966C28.1282 13.4966 28.5104 13.6549 28.7922 13.9367C29.074 14.2185 29.2323 14.6007 29.2323 14.9992C29.2323 15.3977 29.074 15.7799 28.7922 16.0617C28.5104 16.3435 28.1282 16.5018 27.7297 16.5018L16.5017 16.5027L16.5 27.728Z" fill="#FF7FB9"/>
</svg>
