<svg width="22" height="23" viewBox="0 0 22 23" fill="none" xmlns="http://www.w3.org/2000/svg">
<path d="M12.1252 21.0319C12.1252 21.3307 12.0065 21.6174 11.7951 21.8287C11.5838 22.0401 11.2971 22.1588 10.9983 22.1588C10.6994 22.1588 10.4127 22.0401 10.2014 21.8287C9.99004 21.6174 9.87131 21.3307 9.87131 21.0319L9.87263 12.6129L1.45364 12.6115C1.15476 12.6115 0.868112 12.4928 0.656767 12.2815C0.445423 12.0701 0.326691 11.7835 0.326691 11.4846C0.32669 11.1857 0.445423 10.8991 0.656767 10.6877C0.868111 10.4764 1.15476 10.3576 1.45364 10.3576L9.87263 10.359L9.87396 1.93998C9.87396 1.64109 9.99269 1.35445 10.204 1.1431C10.4154 0.931758 10.702 0.813025 11.0009 0.813025C11.2998 0.813025 11.5864 0.931757 11.7978 1.1431C12.0091 1.35445 12.1279 1.64109 12.1279 1.93998L12.1265 10.359L20.5475 10.3583C20.8464 10.3583 21.133 10.477 21.3444 10.6884C21.5557 10.8997 21.6745 11.1864 21.6745 11.4853C21.6745 11.7841 21.5557 12.0708 21.3444 12.2821C21.133 12.4935 20.8464 12.6122 20.5475 12.6122L12.1265 12.6129L12.1252 21.0319Z" fill="black"/>
</svg>
